# xmcd
#
# Track frame offsets:
# 150
# 20157
# 38090
# 51302
# 68330
# 83300
# 96635
# 117640
# 134160
# 142607
# 161515
# 172510
# 191700
# 209327
# 225742
# 245240
#
# Disc length: 3478 seconds
#
#
# Revision: 3
# Processed by: cddbd v1.5.1PL0 Copyright (c) Steve Scherf et al.
# Submitted via: FreeRIP 2.942 
#
DISCID=dd0d9410
DTITLE=Enya - Paint The Sky With Stars (The Best of Enya)
DYEAR=1997
DGENRE=New Age
TTITLE0=Orinoco Flow
TTITLE1=Caribbean Blue
TTITLE2=Book Of Days
TTITLE3=Anywhere Is
TTITLE4=Only If...
TTITLE5=The Celts
TTITLE6=China Roses
TTITLE7=Shepherd Moons
TTITLE8=Ebudae
TTITLE9=Storms In Africa
TTITLE10=Watermark
TTITLE11=Paint The Sky With Stars
TTITLE12=Marble Halls
TTITLE13=On My Way Home
TTITLE14=The Memory Of Trees
TTITLE15=Boadicea
EXTD=ID3G:   0
EXTT0=
EXTT1=
EXTT2=
EXTT3=
EXTT4=
EXTT5=
EXTT6=
EXTT7=
EXTT8=
EXTT9=
EXTT10=
EXTT11=
EXTT12=
EXTT13=
EXTT14=
EXTT15=
PLAYORDER=
